<?xml version="1.0" standalone="no"?><!DOCTYPE svg PUBLIC "-//W3C//DTD SVG 1.1//EN" "http://www.w3.org/Graphics/SVG/1.1/DTD/svg11.dtd"><svg t="1648905868294" class="icon" viewBox="0 0 1038 1024" version="1.1" xmlns="http://www.w3.org/2000/svg" p-id="10006" xmlns:xlink="http://www.w3.org/1999/xlink" width="202.734375" height="200"><defs><style type="text/css"></style></defs><path d="M519.525596 922.793715c-29.583376 0-57.090725-11.418145-77.850989-31.659402l-2.076026-2.076026c-2.595033-2.595033-270.402433-268.326406-299.985809-297.909782-27.507349-26.988343-48.267613-58.128738-62.799797-93.421186a278.706538 278.706538 0 0 1-21.27927-106.915358c0-37.368474 6.747086-74.217942 20.760264-108.991383 14.532184-35.811455 35.811455-68.50887 63.318803-96.016219 54.495692-54.495692 127.156614-84.598074 203.96959-84.598074 61.242777 0 119.890522 18.684237 169.715154 54.495692l7.266093 5.190066 7.266092-5.190066c49.824633-34.773441 107.953371-52.938672 169.196148-52.938672 76.812975 0 149.473898 29.583376 203.969589 82.522047 28.026356 27.507349 49.824633 60.204764 64.875824 96.016219 14.532184 34.773441 21.27927 71.622909 20.760264 109.51039-0.519007 37.368474-7.785099 73.179929-22.83629 106.915358-15.051191 34.773441-36.849468 66.432843-65.394831 92.902179-14.532184 14.013178-286.491637 284.415611-302.061834 299.985809-19.72225 20.760264-47.2296 32.178409-76.812975 32.178408zM344.101368 156.73999c-62.280791 0-120.928535 24.39331-165.044095 67.989863-44.11556 44.634567-68.50887 103.282311-67.989863 165.563102 0.519007 61.242777 24.39331 118.333502 67.470857 160.892042 25.950329 25.950329 236.147998 234.590978 299.985808 297.909783l2.595033 2.595032c10.380132 10.380132 23.874303 15.570198 38.406488 15.570198 14.532184 0 28.545362-5.709072 38.406487-15.570198 101.206285-100.687278 297.909782-295.833756 302.061835-299.985808l1.038013-1.038013c44.634567-42.039534 70.06589-99.130258 70.584896-160.373036 0.519007-62.280791-23.874303-120.928535-69.027876-165.044095-44.11556-43.077547-102.763305-66.95185-165.044095-66.95185-58.647745 0-114.700456 21.27927-158.29701 59.685757l-18.684237 16.089205-18.165231-16.608211c-44.11556-38.925494-100.168272-60.723771-158.29701-60.723771zM229.400912 392.887988c-8.823112 0-15.051191-6.228079-15.051191-15.051191 0-33.735428 13.494171-65.913837 37.887481-90.307147 24.39331-24.39331 56.571718-37.887481 90.307147-37.887481 5.709072 0 10.380132 2.076026 12.456158 6.228079 2.076026 3.633046 1.55702 7.266092 0.519006 9.861126l-0.519006 1.557019v1.55702c-1.038013 7.785099-6.747086 12.975165-14.532185 12.975165-25.431323 0-49.305626 9.861125-67.989863 28.545362C254.313229 328.531171 243.933097 352.92448 243.933097 378.355803c0.519007 8.304105-5.709072 14.532184-14.532185 14.532185z" p-id="10007"></path></svg>