<?xml version="1.0" standalone="no"?><!DOCTYPE svg PUBLIC "-//W3C//DTD SVG 1.1//EN" "http://www.w3.org/Graphics/SVG/1.1/DTD/svg11.dtd"><svg t="1647705508870" class="icon" viewBox="0 0 1024 1024" version="1.1" xmlns="http://www.w3.org/2000/svg" p-id="51529" xmlns:xlink="http://www.w3.org/1999/xlink" width="200" height="200"><defs><style type="text/css"></style></defs><path d="M512 512m-512 0a512 512 0 1 0 1024 0 512 512 0 1 0-1024 0Z" p-id="51530"></path><path d="M792.9 440.4l-5.2-6.4c-30.5-37.7-73.6-59.3-118.1-59.3H522.3c-10.9 0-19.8 10.3-19.8 23s8.9 23 19.8 23h147.2c33.7 0 66.2 16.3 89.4 44.8l5.2 6.4c22.5 27.8 34.3 64.1 33.3 102.2-1.1 38.1-14.8 73.5-38.8 99.6-22.8 24.9-52.6 38.6-83.9 38.6H206.8c-10.9 0-19.8 10.3-19.8 23s8.9 23 19.8 23h467.9c41.4 0 80.8-18.1 111-51 31.7-34.5 49.9-81.2 51.2-131.7 1.4-50.4-14.3-98.5-44-135.2z" fill="#FFFFFF" p-id="51531"></path><path d="M585.9 589.4c5 0 10.2-2.3 14-6.7 7.7-9 7.7-23.6 0-32.5L468.5 397.6 599.8 245c7.7-9 7.7-23.6 0-32.5-7.7-9-20.2-9-27.9 0L412.6 397.6l159.2 185.1c3.9 4.4 8.9 6.7 14.1 6.7z" fill="#FFFFFF" p-id="51532"></path></svg>