<?xml version="1.0" standalone="no"?><!DOCTYPE svg PUBLIC "-//W3C//DTD SVG 1.1//EN" "http://www.w3.org/Graphics/SVG/1.1/DTD/svg11.dtd"><svg t="1647695718416" class="icon" viewBox="0 0 1024 1024" version="1.1" xmlns="http://www.w3.org/2000/svg" p-id="9145" xmlns:xlink="http://www.w3.org/1999/xlink" width="200" height="200"><defs><style type="text/css"></style></defs><path d="M512 227.5c-74.1 0-134.3 60.3-134.3 134.3S437.9 496.2 512 496.2s134.3-60.3 134.3-134.3S586.1 227.5 512 227.5zM512 0C229.2 0 0 229.2 0 512s229.2 512 512 512c282.8 0 512-229.2 512-512S794.8 0 512 0zM749.9 780.1c-14 0-25.3-11.3-25.3-25.3 0-116-93.4-206.8-212.6-206.8s-212.6 90.8-212.6 206.8c0 14-11.3 25.3-25.3 25.3s-25.3-11.3-25.3-25.3c0-70.1 27.5-135.3 77.4-183.6 24.5-23.7 53.2-42.1 84.5-54.6-10.5-6.9-20.3-14.9-29.4-24-34.9-34.9-54.2-81.4-54.2-130.8 0-49.4 19.2-95.9 54.2-130.8 34.9-34.9 81.4-54.2 130.8-54.2 49.4 0 95.9 19.2 130.8 54.2C677.7 266 697 312.5 697 361.9c0 49.4-19.2 95.9-54.2 130.8-9.1 9.1-18.9 17.1-29.4 24 31.3 12.5 59.9 30.9 84.5 54.6 49.9 48.2 77.4 113.4 77.4 183.6C775.2 768.8 763.9 780.1 749.9 780.1z" p-id="9146"></path></svg>