<?xml version="1.0" standalone="no"?><!DOCTYPE svg PUBLIC "-//W3C//DTD SVG 1.1//EN" "http://www.w3.org/Graphics/SVG/1.1/DTD/svg11.dtd"><svg t="1648896417801" class="icon" viewBox="0 0 1024 1024" version="1.1" xmlns="http://www.w3.org/2000/svg" p-id="2302" xmlns:xlink="http://www.w3.org/1999/xlink" width="200" height="200"><defs><style type="text/css"></style></defs><path d="M672.885016 651.599973H328.071023a57.974133 57.974133 0 0 1-57.916948-57.894074 25.332946 25.332946 0 0 1 0.606161-5.569817l22.999799-106.684298a26.396587 26.396587 0 0 1 25.801863-20.82677h361.809369a26.38515 26.38515 0 0 1 25.790426 20.82677l23.03411 106.684298a26.030603 26.030603 0 0 1 0.594723 5.569817 57.962696 57.962696 0 0 1-57.90551 57.894074z m-349.674716-56.292894a5.135211 5.135211 0 0 0 4.87216 3.511158h344.802556a5.123774 5.123774 0 0 0 4.860723-3.511158l-17.681596-81.934639H340.891896zM450.115208 423.077356a26.38515 26.38515 0 0 1-26.190721-23.49159 112.334175 112.334175 0 0 0-36.598388-71.892957c-49.979673-44.455603-72.190319-110.67581-59.403757-177.147631 14.170438-73.574195 73.093841-132.669154 146.610852-146.953961 56.189961-10.910894 113.283445 3.316729 156.686845 39.114526a187.566734 187.566734 0 0 1 8.806487 281.956262c-27.608908 25.756115-38.954408 46.377019-40.441218 73.505574-0.789153 14.536422-13.289789 25.161391-27.7919 24.909777a26.38515 26.38515 0 0 1-24.909777-27.7919c2.836375-51.923962 30.479594-84.359283 57.18498-109.223312a134.73925 134.73925 0 0 0-6.336096-202.58351c-31.771975-26.133536-71.801461-36.049411-113.111891-28.089262-52.610182 10.293296-94.721201 52.495812-104.854379 105.140304-9.241093 48.035383 6.70208 95.750531 42.625684 127.716934 30.22798 26.84263 49.407823 64.333103 53.982621 105.529162a26.305091 26.305091 0 0 1-23.308598 29.130029 28.729734 28.729734 0 0 1-2.950744 0.171555z" fill="#0E4F53" p-id="2303"></path><path d="M926.603335 1024h-829.18221a26.396587 26.396587 0 1 1 0-52.793174h829.18221a26.396587 26.396587 0 0 1 0 52.793174z" fill="#9B4537" p-id="2304"></path><path d="M564.233554 243.173409a26.408024 26.408024 0 0 1-18.665178-45.061764 31.200125 31.200125 0 0 0-44.112493-44.123931 26.38515 26.38515 0 1 1-37.284607-37.318918A83.981862 83.981862 0 1 1 582.910168 235.453437a26.305091 26.305091 0 0 1-18.676614 7.719972z" fill="#CDC1AD" p-id="2305"></path><path d="M922.794815 907.868743h-823.463712A26.396587 26.396587 0 0 1 72.934516 881.472156v-111.144727c0-92.97134 75.644292-168.627069 168.627069-168.627069H780.541459c92.982777 0 168.627069 75.655729 168.627069 168.627069v111.144727a26.396587 26.396587 0 0 1-26.373713 26.396587zM125.693379 855.075569h770.681976v-84.74814A115.959702 115.959702 0 0 0 780.541459 654.493533H241.538711A115.971139 115.971139 0 0 0 125.693379 770.327429z" fill="#0E4F53" p-id="2306"></path></svg>