<?xml version="1.0" standalone="no"?><!DOCTYPE svg PUBLIC "-//W3C//DTD SVG 1.1//EN" "http://www.w3.org/Graphics/SVG/1.1/DTD/svg11.dtd"><svg t="1648913589735" class="icon" viewBox="0 0 1024 1024" version="1.1" xmlns="http://www.w3.org/2000/svg" p-id="17333" xmlns:xlink="http://www.w3.org/1999/xlink" width="200" height="200"><defs><style type="text/css"></style></defs><path d="M204.90873 512.000512a31.840764 31.840764 0 0 0 10.545333 23.547832L707.296607 1013.671716a33.78602 33.78602 0 0 0 48.631392 0L808.654667 962.378395A31.943146 31.943146 0 0 0 819.20000001 938.830563c0-8.90722299-3.480984-16.790628-10.545333-23.650214L393.803295 512.000512 808.654667 108.820675a31.943146 31.943146 0 0 0 10.545333-23.547832c0-8.90722299-3.480984-16.790628-10.54533299-23.547832l-52.72666801-51.395703a33.78602 33.78602 0 0 0-48.631392 0l-491.84254401 478.123372A32.045528 32.045528 0 0 0 204.90873 512.000512z" p-id="17334"></path></svg>